<?xml version="1.0" encoding="utf-8"?>
<!-- Generator: Adobe Illustrator 19.1.0, SVG Export Plug-In . SVG Version: 6.00 Build 0)  -->
<svg version="1.1" id="Layer_1" xmlns="http://www.w3.org/2000/svg" xmlns:xlink="http://www.w3.org/1999/xlink" x="0px" y="0px"
	 viewBox="-3402 1672.6 89.2 89.6" style="enable-background:new -3402 1672.6 89.2 89.6;" xml:space="preserve">
<path d="M-3335,1672.6h-44.6c-12.3,0-22.3,10-22.3,22.3v45c0,12.3,10,22.3,22.3,22.3h44.6c12.3,0,22.3-10,22.3-22.3v-45
	C-3312.7,1682.6-3322.7,1672.6-3335,1672.6z M-3379.7,1680.8h44.6c7.7,0,14,6.3,14,14v7.7h-23.6c-3.5-2.5-7.7-3.9-12.3-3.9
	c-4.6,0-8.8,1.5-12.3,3.9h-24.6v-7.7C-3393.7,1687.1-3387.4,1680.8-3379.7,1680.8z M-3348.1,1719.8c0,4.8-3.9,8.8-8.8,8.8
	c-4.8,0-8.8-3.9-8.8-8.8c0-4.8,3.9-8.8,8.8-8.8C-3352.1,1711-3348.1,1714.9-3348.1,1719.8z M-3335,1753.9h-44.6c-7.7,0-14-6.3-14-14
	v-29.1h17.6c-1.3,2.7-2,5.8-2,9c0,11.7,9.5,21.2,21.2,21.2c11.7,0,21.2-9.5,21.2-21.2c0-3.2-0.7-6.3-2-9h16.7v29.1
	C-3321,1747.6-3327.3,1753.9-3335,1753.9z"/>
<path d="M-3327.5,1696c0,1.4-1.1,2.5-2.5,2.5h-7.7c-1.4,0-2.5-1.1-2.5-2.5v-7.7c0-1.4,1.1-2.5,2.5-2.5h7.7c1.4,0,2.5,1.1,2.5,2.5
	V1696z"/>
</svg>
